<svg xmlns="http://www.w3.org/2000/svg" viewBox="0 0 187 31" width="187" height="31">
	<style>
		tspan { white-space:pre }
	</style>
	<path fill="#ffffff" d="M32.71 2.05L19.02 19.49L12.02 2.05L6.74 2.05L1.14 30.06L7.22 30.06L10.58 13.25L16.34 27.1L19.22 27.1L29.91 13.41L26.63 30.06L32.71 30.06L38.27 2.05ZM57.6 30.06L64.08 30.06L57.2 2.05L50.79 2.05L32.67 30.06L39.59 30.06L43.23 24.06L56.28 24.06ZM46.23 19.13L52.84 8.33L55.2 19.13ZM83.81 24.02C82.33 24.7 80.8 25.02 79.16 25.02C73.84 25.02 71.04 22.18 71.04 17.97C71.04 11.81 75.24 7.09 81.81 7.09C84.93 7.09 87.25 7.97 89.13 10.21L93.77 6.45C91.37 3.29 87.45 1.57 82.09 1.57C71.48 1.57 64.48 8.81 64.48 18.37C64.48 25.62 69.84 30.54 78.32 30.54C82.37 30.54 86.21 29.3 89.05 27.14L91.37 15.61L85.45 15.61ZM106.49 9.01C102.81 9.01 99.81 10.53 97.81 13.09L100.33 0.37L98.33 0.37L92.41 30.06L94.37 30.06L95.41 24.74C96.41 28.22 99.29 30.22 103.69 30.22C110.54 30.22 115.54 24.9 115.54 17.69C115.54 12.33 111.9 9.01 106.49 9.01ZM103.73 28.42C99.01 28.42 96.29 25.86 96.29 21.42C96.29 15.25 100.45 10.81 106.09 10.81C110.78 10.81 113.5 13.37 113.5 17.81C113.5 23.94 109.37 28.42 103.73 28.42ZM138.78 9.17L137.74 14.37C136.74 10.97 133.86 9.01 129.5 9.01C122.66 9.01 117.7 14.33 117.7 21.54C117.7 26.9 121.3 30.22 126.7 30.22C130.42 30.22 133.5 28.62 135.5 25.98L134.7 30.06L136.62 30.06L140.79 9.17ZM127.1 28.42C122.42 28.42 119.7 25.86 119.7 21.42C119.7 15.29 123.86 10.81 129.5 10.81C134.18 10.81 136.9 13.37 136.9 17.81C136.9 23.98 132.74 28.42 127.1 28.42ZM155.99 9.01C152.43 9.01 149.39 10.29 147.35 13.13L148.15 9.17L146.19 9.17L142.03 30.06L144.03 30.06L146.31 18.69C147.35 13.49 150.71 10.81 155.47 10.81C159.39 10.81 161.35 12.73 161.35 15.97C161.35 16.61 161.31 17.25 161.15 17.97L158.75 30.06L160.75 30.06L163.15 17.97C163.31 17.17 163.39 16.41 163.39 15.69C163.39 11.57 160.79 9.01 155.99 9.01ZM188.2 9.17L185.28 9.17L169.72 21.3L173.88 0.37L171.88 0.37L165.95 30.06L167.95 30.06L169.19 23.9L175.68 18.89L182.44 30.06L184.76 30.06L177.24 17.69Z" />
</svg>