<svg xmlns="http://www.w3.org/2000/svg" viewBox="0 0 299 50" width="299" height="50"><style>tspan { white-space:pre }</style><path fill="#ffffff" d="M51.03 3.5L30.66 29.46L20.16 3.5L9.84 3.5L0.88 48.37L12.53 48.37L17.27 24.72L25.41 43.95L30.98 43.95L45.91 24.72L41.3 48.37L53.02 48.37L61.86 3.5ZM91.26 48.37L103.88 48.37L93.05 3.5L80.56 3.5L51.8 48.37L65.19 48.37L70.38 39.66L89.47 39.66ZM75.95 30.3L84.54 15.74L87.55 30.3ZM134.24 37.67C132.32 38.44 130.34 38.76 128.29 38.76C120.92 38.76 116.82 34.72 116.82 28.69C116.82 19.72 122.71 13.12 131.94 13.12C136.55 13.12 140.01 14.4 142.96 18.05L152.05 10.87C148.02 5.49 141.48 2.6 132.51 2.6C115.48 2.6 104.01 13.95 104.01 29.53C104.01 41.26 112.85 49.27 126.56 49.27C133.35 49.27 139.63 47.35 144.24 43.89L148.02 24.98L136.81 24.98ZM171.53 14.65C165.63 14.65 160.83 17.09 157.63 21.19L161.66 0.81L158.46 0.81L148.98 48.37L152.12 48.37L153.78 39.85C155.38 45.42 160 48.63 167.04 48.63C178 48.63 186 40.1 186 28.57C186 19.98 180.17 14.65 171.53 14.65ZM167.11 45.74C159.55 45.74 155.19 41.64 155.19 34.53C155.19 24.65 161.85 17.54 170.89 17.54C178.38 17.54 182.74 21.64 182.74 28.76C182.74 38.57 176.14 45.74 167.11 45.74ZM223.22 14.91L221.56 23.24C219.95 17.8 215.34 14.65 208.36 14.65C197.41 14.65 189.46 23.18 189.46 34.72C189.46 43.31 195.23 48.63 203.88 48.63C209.83 48.63 214.77 46.07 217.97 41.83L216.69 48.37L219.76 48.37L226.42 14.91ZM204.52 45.74C197.02 45.74 192.67 41.64 192.67 34.53C192.67 24.72 199.33 17.54 208.36 17.54C215.85 17.54 220.21 21.64 220.21 28.76C220.21 38.63 213.55 45.74 204.52 45.74ZM250.77 14.65C245.06 14.65 240.2 16.71 236.93 21.26L238.21 14.91L235.07 14.91L228.41 48.37L231.61 48.37L235.26 30.17C236.93 21.83 242.31 17.54 249.93 17.54C256.21 17.54 259.35 20.62 259.35 25.81C259.35 26.83 259.29 27.86 259.03 29.01L255.19 48.37L258.39 48.37L262.23 29.01C262.49 27.73 262.62 26.51 262.62 25.36C262.62 18.76 258.45 14.65 250.77 14.65ZM302.33 14.91L297.66 14.91L272.74 34.33L279.4 0.81L276.2 0.81L266.72 48.37L269.92 48.37L271.9 38.5L282.28 30.49L293.11 48.37L296.82 48.37L284.78 28.57Z" /></svg>